# xmcd
#
# Track frame offsets:
#	150
#	16183
#	31740
#	48352
#	68341
#	79751
#	94836
#	116332
#	125740
#	146700
#	166308
#	180997
#	199600
#	217038
#
# Disc length: 3085 seconds
# Revision: 0
# Processed by: cddbd v1.5.2PL0 Copyright (c) Steve Scherf et al.
# Submitted via: dBpowerAMP V12.0
#
DISCID=b30c0b0e
DTITLE=Steel Wheels, The - Red Wing
DYEAR=2010
DGENRE=Bluegrass
TTITLE0=Love You Like I Should
TTITLE1=Walk This Way for Awhile
TTITLE2=Nothing You Can't Lose
TTITLE3=Red Wing
TTITLE4=At Long Last
TTITLE5=Take a Picture, Lose Your Soul
TTITLE6=Valley
TTITLE7=Dragging Your Heels
TTITLE8=Hymn for the Unsung
TTITLE9=Long Way to Go
TTITLE10=Surround Me
TTITLE11=Second of May
TTITLE12=Dance Me Around the Room
TTITLE13=Working on a Building
EXTD=
EXTT0=
EXTT1=
EXTT2=
EXTT3=
EXTT4=
EXTT5=
EXTT6=
EXTT7=
EXTT8=
EXTT9=
EXTT10=
EXTT11=
EXTT12=
EXTT13=
PLAYORDER=
